<svg xmlns="http://www.w3.org/2000/svg"  viewBox="0 0 96 96" width="96px" height="96px" baseProfile="basic"><path fill="#4d4dff" d="M77.501,83.444c-2.035,0-4.07-0.774-5.621-2.323l-8.934-8.935	c-2.304-2.305-1.825-5.188-1.568-6.737c0.035-0.214,0.083-0.497,0.109-0.721L58.55,61.79c-1.172-1.171-1.172-3.071,0-4.242	c1.172-1.172,3.07-1.172,4.242,0l2.806,2.805c0.398-1.063,1.387-1.853,2.594-1.939c0.53-0.039,3.37-0.096,6.099,2.633l8.832,8.832	c1.502,1.501,2.329,3.497,2.329,5.621c0,2.123-0.827,4.119-2.329,5.621C81.573,82.67,79.537,83.444,77.501,83.444z M67.5,64.266	c0.021,0.815-0.104,1.574-0.203,2.166c-0.079,0.476-0.211,1.271-0.129,1.494l8.954,8.952c0.76,0.76,1.998,0.76,2.758,0	c0.368-0.369,0.571-0.858,0.571-1.379s-0.203-1.01-0.571-1.378l-8.832-8.833c-0.726-0.726-1.418-0.891-1.425-0.891l0,0	C68.229,64.423,67.852,64.377,67.5,64.266z M61.872,65.113h0.011H61.872z" opacity=".3"/><path fill="#4d4dff" d="M77.501,82.445c-1.779,0-3.559-0.678-4.914-2.031l-8.934-8.935	c-1.94-1.941-1.549-4.304-1.289-5.866c0.068-0.413,0.17-1.021,0.143-1.28l-3.25-3.25c-0.781-0.781-0.781-2.047,0-2.828	s2.047-0.781,2.828,0l3.322,3.322c1.442,1.441,1.131,3.319,0.903,4.69c-0.24,1.447-0.248,1.965,0.171,2.384l8.934,8.934	c1.15,1.148,3.021,1.148,4.172,0c0.558-0.558,0.864-1.299,0.864-2.086c0-0.788-0.307-1.528-0.864-2.085l-8.832-8.833	c-1.129-1.129-2.179-1.181-2.203-1.181l0,0c-1.121,0.074-2.06-0.749-2.14-1.851c-0.079-1.103,0.749-2.06,1.851-2.14	c0.285-0.016,2.849-0.129,5.32,2.343l8.832,8.832c1.313,1.312,2.036,3.058,2.036,4.914c0,1.855-0.723,3.602-2.036,4.914	C81.061,81.768,79.281,82.445,77.501,82.445z M62.579,64.406h0.011H62.579z" opacity=".3"/><path fill="#0fd2ff" d="M39,68c-15.439,0-28-12.561-28-28s12.561-28,28-28s28,12.561,28,28	c0,6.042-1.895,11.796-5.479,16.639c-0.665,0.901-1.744,1.322-2.775,1.194c0.229,1.019-0.08,2.129-0.907,2.882	C52.677,65.413,45.986,68,39,68z M39,18c-12.131,0-22,9.869-22,22s9.869,22,22,22c5.489,0,10.745-2.032,14.8-5.723	c0.673-0.611,1.552-0.856,2.385-0.759c-0.187-0.822-0.026-1.718,0.515-2.448C59.513,49.268,61,44.748,61,40	C61,27.869,51.131,18,39,18z" opacity=".3"/><path fill="#0fd2ff" d="M39,67c-14.888,0-27-12.112-27-27s12.112-27,27-27s27,12.112,27,27	c0,5.826-1.826,11.374-5.282,16.044c-0.655,0.888-1.908,1.076-2.797,0.418c-0.888-0.656-1.075-1.909-0.418-2.797	C60.445,49.688,62,44.964,62,40c0-12.683-10.317-23-23-23S16,27.317,16,40s10.317,23,23,23c5.738,0,11.233-2.125,15.474-5.983	c0.817-0.744,2.082-0.685,2.825,0.134c0.743,0.816,0.684,2.081-0.134,2.825C52.187,64.505,45.736,67,39,67z" opacity=".3"/><path fill="#4d4dff" d="M77.501,81.445c-1.523,0-3.047-0.579-4.207-1.739l-8.934-8.934c-1.577-1.577-1.249-3.553-1.01-4.996	c0.179-1.074,0.264-1.75-0.064-2.078l-3.322-3.322c-0.391-0.391-0.391-1.023,0-1.414s1.023-0.391,1.414,0l3.322,3.322	c1.079,1.078,0.837,2.535,0.624,3.82c-0.249,1.495-0.342,2.461,0.45,3.254l8.934,8.934c1.542,1.54,4.048,1.539,5.586,0	c0.746-0.746,1.157-1.738,1.157-2.793c0-1.056-0.411-2.047-1.157-2.793l-8.832-8.832c-1.53-1.531-2.968-1.472-2.982-1.472	c-0.546,0.035-1.029-0.374-1.069-0.925s0.374-1.03,0.925-1.069c0.103-0.006,2.347-0.144,4.541,2.052l8.832,8.832	c1.124,1.123,1.743,2.617,1.743,4.207c0,1.589-0.619,3.083-1.743,4.207C80.549,80.866,79.025,81.445,77.501,81.445z"/><path fill="#0fd2ff" d="M39,66c-14.337,0-26-11.663-26-26s11.663-26,26-26s26,11.663,26,26c0,5.61-1.759,10.953-5.086,15.449	c-0.328,0.444-0.953,0.539-1.398,0.209c-0.444-0.328-0.538-0.954-0.209-1.398C61.377,50.11,63,45.179,63,40	c0-13.233-10.767-24-24-24S15,26.767,15,40s10.767,24,24,24c5.988,0,11.722-2.218,16.146-6.243c0.408-0.372,1.04-0.342,1.412,0.066	s0.342,1.041-0.066,1.412C51.699,63.598,45.487,66,39,66z"/></svg>